<?xml version="1.0" encoding="UTF-8"?>
<svg xmlns="http://www.w3.org/2000/svg" xmlns:xlink="http://www.w3.org/1999/xlink" width="294px" height="294px" viewBox="0 0 294 294" version="1.1">
<defs>
<clipPath id="clip1">
  <path d="M 0 0 L 293.914062 0 L 293.914062 293.914062 L 0 293.914062 Z M 0 0 "/>
</clipPath>
<clipPath id="clip2">
  <path d="M 97.542969 62.648438 L 196.371094 62.648438 L 196.371094 231.265625 L 97.542969 231.265625 Z M 97.542969 62.648438 "/>
</clipPath>
</defs>
<g id="surface1">
<g clip-path="url(#clip1)" clip-rule="nonzero">
<path style=" stroke:none;fill-rule:nonzero;fill:rgb(17.254902%,22.745098%,81.960785%);fill-opacity:1;" d="M 0 146.957031 C 0 65.796875 65.796875 0 146.957031 0 C 228.121094 0 293.914062 65.796875 293.917969 146.957031 C 293.917969 228.121094 228.121094 293.914062 146.957031 293.917969 C 65.796875 293.917969 0 228.121094 0 146.957031 Z M 146.957031 278.710938 C 219.722656 278.710938 278.710938 219.722656 278.710938 146.957031 C 278.710938 74.191406 219.722656 15.207031 146.957031 15.207031 C 74.191406 15.207031 15.207031 74.195312 15.207031 146.957031 C 15.207031 219.722656 74.195312 278.710938 146.957031 278.710938 Z M 146.957031 278.710938 "/>
</g>
<path style=" stroke:none;fill-rule:nonzero;fill:rgb(17.254902%,22.745098%,81.960785%);fill-opacity:1;" d="M 288.039062 146.957031 C 288.039062 69.042969 224.875 5.878906 146.957031 5.878906 C 69.042969 5.878906 5.878906 69.042969 5.878906 146.957031 C 5.878906 224.875 69.042969 288.039062 146.957031 288.039062 C 224.875 288.039062 288.039062 224.875 288.039062 146.957031 Z M 288.039062 146.957031 "/>
<g clip-path="url(#clip2)" clip-rule="nonzero">
<path style=" stroke:none;fill-rule:nonzero;fill:rgb(100%,100%,100%);fill-opacity:1;" d="M 103.886719 62.648438 L 195.640625 62.648438 L 195.640625 86.808594 L 131.21875 205.886719 L 196.371094 205.886719 L 193.445312 231.265625 L 97.542969 231.265625 L 97.542969 207.351562 L 162.210938 87.539062 L 103.886719 87.539062 Z M 103.886719 62.648438 "/>
</g>
</g>
</svg>
